{
	"asset":{
		"generator":"Khronos glTF Blender I/O v4.0.44",
		"version":"2.0"
	},
	"scene":0,
	"scenes":[
		{
			"name":"Scene",
			"nodes":[
				0,
				1,
				2,
				3,
				4,
				5,
				6,
				7,
				8,
				9,
				10,
				11,
				12,
				13,
				14,
				15,
				16,
				17,
				18,
				19,
				20,
				21,
				22
			]
		}
	],
	"nodes":[
		{
			"mesh":0,
			"name":"model",
			"rotation":[
				0,
				-0.7071066498756409,
				0.70710688829422,
				5.3385068810030134e-08
			],
			"scale":[
				0.009999999776482582,
				0.009999999776482582,
				0.009999999776482582
			],
			"translation":[
				0.03410780429840088,
				0,
				0.1247902661561966
			]
		},
		{
			"mesh":1,
			"name":"model.001",
			"rotation":[
				0,
				-0.7071066498756409,
				0.70710688829422,
				5.3385068810030134e-08
			],
			"scale":[
				0.009999999776482582,
				0.009999999776482582,
				0.009999999776482582
			],
			"translation":[
				0.01602591946721077,
				0.33127090334892273,
				-0.27826976776123047
			]
		},
		{
			"mesh":2,
			"name":"model.002",
			"rotation":[
				0,
				-0.7071066498756409,
				0.70710688829422,
				5.3385068810030134e-08
			],
			"scale":[
				0.009999999776482582,
				0.009999999776482582,
				0.009999999776482582
			],
			"translation":[
				0.023896927013993263,
				0.4601386487483978,
				-0.14924240112304688
			]
		},
		{
			"mesh":3,
			"name":"model.003",
			"rotation":[
				0,
				-0.7071066498756409,
				0.70710688829422,
				5.3385068810030134e-08
			],
			"scale":[
				0.009999999776482582,
				0.009999999776482582,
				0.009999999776482582
			],
			"translation":[
				0.03410780429840088,
				0,
				0.1247902661561966
			]
		},
		{
			"mesh":4,
			"name":"model.006",
			"rotation":[
				0,
				-0.7071066498756409,
				0.70710688829422,
				5.3385068810030134e-08
			],
			"scale":[
				0.009999999776482582,
				0.009999999776482582,
				0.009999999776482582
			],
			"translation":[
				0.014940770342946053,
				0.3312035799026489,
				0.09515988826751709
			]
		},
		{
			"mesh":5,
			"name":"axis.001",
			"rotation":[
				0,
				-0.7071066498756409,
				0.70710688829422,
				5.3385068810030134e-08
			],
			"scale":[
				0.009999999776482582,
				0.009999999776482582,
				0.009999999776482582
			],
			"translation":[
				0.014940748922526836,
				0.3312709629535675,
				0.28566086292266846
			]
		},
		{
			"mesh":6,
			"name":"Object_15.001",
			"rotation":[
				0,
				-0.7071066498756409,
				0.70710688829422,
				5.3385068810030134e-08
			],
			"scale":[
				0.009999999776482582,
				0.009999999776482582,
				0.009999999776482582
			],
			"translation":[
				0.014940794557332993,
				0.3312709629535675,
				-0.2107728123664856
			]
		},
		{
			"mesh":7,
			"name":"impeler.001",
			"rotation":[
				0,
				-0.7071066498756409,
				0.70710688829422,
				5.3385068810030134e-08
			],
			"scale":[
				0.009999999776482582,
				0.009999999776482582,
				0.009999999776482582
			],
			"translation":[
				0.01494078990072012,
				0.3312709629535675,
				-0.1629813015460968
			]
		},
		{
			"mesh":8,
			"name":"Object_57.006",
			"rotation":[
				0,
				-0.7071066498756409,
				0.70710688829422,
				5.3385068810030134e-08
			],
			"scale":[
				0.009999999776482582,
				0.009999999776482582,
				0.009999999776482582
			],
			"translation":[
				0.015011363662779331,
				0.33127066493034363,
				-0.27736109495162964
			]
		},
		{
			"mesh":9,
			"name":"bolts1.002",
			"rotation":[
				0,
				-0.7071066498756409,
				0.70710688829422,
				5.3385068810030134e-08
			],
			"scale":[
				0.009999999776482582,
				0.009999999776482582,
				0.009999999776482582
			],
			"translation":[
				0.015011451207101345,
				0.3312714397907257,
				-0.28974661231040955
			]
		},
		{
			"mesh":10,
			"name":"Object_57.007",
			"rotation":[
				0,
				-0.7071066498756409,
				0.70710688829422,
				5.3385068810030134e-08
			],
			"scale":[
				0.009999999776482582,
				0.009999999776482582,
				0.009999999776482582
			],
			"translation":[
				0.015011214651167393,
				0.33127066493034363,
				-0.2712174654006958
			]
		},
		{
			"mesh":11,
			"name":"Object_57.008",
			"rotation":[
				0,
				-0.7071066498756409,
				0.70710688829422,
				5.3385068810030134e-08
			],
			"scale":[
				0.009999999776482582,
				0.009999999776482582,
				0.009999999776482582
			],
			"translation":[
				0.014940714463591576,
				0.3312710225582123,
				-0.03278808295726776
			]
		},
		{
			"mesh":12,
			"name":"Object_57.010",
			"rotation":[
				0,
				-0.7071066498756409,
				0.70710688829422,
				5.3385068810030134e-08
			],
			"scale":[
				0.009999999776482582,
				0.009999999776482582,
				0.009999999776482582
			],
			"translation":[
				0.01494075171649456,
				0.3312709629535675,
				-0.023173078894615173
			]
		},
		{
			"mesh":13,
			"name":"bolts1.003",
			"rotation":[
				0,
				-0.7071066498756409,
				0.70710688829422,
				5.3385068810030134e-08
			],
			"scale":[
				0.009999999776482582,
				0.009999999776482582,
				0.009999999776482582
			],
			"translation":[
				0.014940638095140457,
				0.3312709629535675,
				-0.007626280188560486
			]
		},
		{
			"mesh":14,
			"name":"Object_57.011",
			"rotation":[
				0,
				-0.7071066498756409,
				0.70710688829422,
				5.3385068810030134e-08
			],
			"scale":[
				0.009999999776482582,
				0.009999999776482582,
				0.009999999776482582
			],
			"translation":[
				0.014940706081688404,
				0.33127090334892273,
				0.44952288269996643
			]
		},
		{
			"mesh":15,
			"name":"Object_57.012",
			"rotation":[
				0,
				-0.7071066498756409,
				0.70710688829422,
				5.3385068810030134e-08
			],
			"scale":[
				0.009999999776482582,
				0.009999999776482582,
				0.009999999776482582
			],
			"translation":[
				0.01494073960930109,
				0.33127081394195557,
				0.4543326795101166
			]
		},
		{
			"mesh":16,
			"name":"bolts1.004",
			"rotation":[
				0,
				-0.7071066498756409,
				0.70710688829422,
				5.3385068810030134e-08
			],
			"scale":[
				0.009999999776482582,
				0.009999999776482582,
				0.009999999776482582
			],
			"translation":[
				0.014940604567527771,
				0.3312709629535675,
				0.46210917830467224
			]
		},
		{
			"mesh":17,
			"name":"Object_57.013",
			"rotation":[
				0,
				-0.7071066498756409,
				0.70710688829422,
				5.3385068810030134e-08
			],
			"scale":[
				0.009999999776482582,
				0.009999999776482582,
				0.009999999776482582
			],
			"translation":[
				0.014940735884010792,
				0.3313382565975189,
				0.10524065792560577
			]
		},
		{
			"mesh":18,
			"name":"Object_57.014",
			"rotation":[
				0,
				-0.7071066498756409,
				0.70710688829422,
				5.3385068810030134e-08
			],
			"scale":[
				0.009999999776482582,
				0.009999999776482582,
				0.009999999776482582
			],
			"translation":[
				0.014940770342946053,
				0.3313383162021637,
				0.1004309132695198
			]
		},
		{
			"mesh":19,
			"name":"bolts1.005",
			"rotation":[
				0,
				-0.7071066498756409,
				0.70710688829422,
				5.3385068810030134e-08
			],
			"scale":[
				0.009999999776482582,
				0.009999999776482582,
				0.009999999776482582
			],
			"translation":[
				0.014940637163817883,
				0.3313382565975189,
				0.09265444427728653
			]
		},
		{
			"mesh":20,
			"name":"cap",
			"rotation":[
				0,
				-0.7071066498756409,
				0.70710688829422,
				5.3385068810030134e-08
			],
			"scale":[
				0.009999999776482582,
				0.009999999776482582,
				0.009999999776482582
			],
			"translation":[
				0.014956467784941196,
				0.5526782274246216,
				0.29499107599258423
			]
		},
		{
			"mesh":21,
			"name":"Object_32.004",
			"rotation":[
				0,
				-0.7071066498756409,
				0.70710688829422,
				5.3385068810030134e-08
			],
			"scale":[
				0.009999999776482582,
				0.009999999776482582,
				0.009999999776482582
			],
			"translation":[
				0.014940764755010605,
				0.3312709629535675,
				0.1312350034713745
			]
		},
		{
			"mesh":22,
			"name":"Object_32.006",
			"rotation":[
				0,
				-0.7071066498756409,
				0.70710688829422,
				5.3385068810030134e-08
			],
			"scale":[
				0.009999999776482582,
				0.009999999776482582,
				0.009999999776482582
			],
			"translation":[
				0.01494073960930109,
				0.3312709629535675,
				0.41734835505485535
			]
		}
	],
	"materials":[
		{
			"doubleSided":true,
			"name":"Material.001",
			"pbrMetallicRoughness":{
				"baseColorFactor":[
					0,
					0.3139747977256775,
					0.9999274015426636,
					1
				],
				"metallicFactor":0,
				"roughnessFactor":0.5
			}
		},
		{
			"doubleSided":true,
			"name":"metal",
			"pbrMetallicRoughness":{
				"baseColorFactor":[
					0.4331415891647339,
					0.7067645788192749,
					0.6557496786117554,
					1
				],
				"metallicFactor":0,
				"roughnessFactor":0.5
			}
		},
		{
			"doubleSided":true,
			"name":"red",
			"pbrMetallicRoughness":{
				"baseColorFactor":[
					0.5842147469520569,
					0,
					0,
					1
				],
				"metallicFactor":0,
				"roughnessFactor":0.5
			}
		},
		{
			"doubleSided":true,
			"emissiveFactor":[
				0.03803015353402106,
				0.06155360585664127,
				0.09324801934750937
			],
			"name":"metal2",
			"pbrMetallicRoughness":{
				"baseColorFactor":[
					0.11068880558013916,
					0.11068880558013916,
					0.11068880558013916,
					1
				],
				"metallicFactor":0,
				"roughnessFactor":0.5
			}
		}
	],
	"meshes":[
		{
			"name":"model",
			"primitives":[
				{
					"attributes":{
						"POSITION":0,
						"NORMAL":1,
						"TEXCOORD_0":2
					},
					"indices":3,
					"material":0
				}
			]
		},
		{
			"name":"model.001",
			"primitives":[
				{
					"attributes":{
						"POSITION":4,
						"NORMAL":5,
						"TEXCOORD_0":6
					},
					"indices":7,
					"material":0
				}
			]
		},
		{
			"name":"model.002",
			"primitives":[
				{
					"attributes":{
						"POSITION":8,
						"NORMAL":9,
						"TEXCOORD_0":10
					},
					"indices":11,
					"material":0
				}
			]
		},
		{
			"name":"model.012",
			"primitives":[
				{
					"attributes":{
						"POSITION":12,
						"NORMAL":13,
						"TEXCOORD_0":14
					},
					"indices":15,
					"material":0
				}
			]
		},
		{
			"name":"model.013",
			"primitives":[
				{
					"attributes":{
						"POSITION":16,
						"NORMAL":17,
						"TEXCOORD_0":18
					},
					"indices":19,
					"material":0
				}
			]
		},
		{
			"name":"axis.001",
			"primitives":[
				{
					"attributes":{
						"COLOR_0":20,
						"POSITION":21,
						"NORMAL":22,
						"TEXCOORD_0":23
					},
					"indices":24,
					"material":1
				}
			]
		},
		{
			"name":"Object_13.001",
			"primitives":[
				{
					"attributes":{
						"COLOR_0":25,
						"POSITION":26,
						"NORMAL":27,
						"TEXCOORD_0":28
					},
					"indices":29,
					"material":1
				}
			]
		},
		{
			"name":"impeler.001",
			"primitives":[
				{
					"attributes":{
						"COLOR_0":30,
						"POSITION":31,
						"NORMAL":32,
						"TEXCOORD_0":33
					},
					"indices":34,
					"material":1
				}
			]
		},
		{
			"name":"Object_55.003",
			"primitives":[
				{
					"attributes":{
						"COLOR_0":35,
						"POSITION":36,
						"NORMAL":37,
						"TEXCOORD_0":38
					},
					"indices":39,
					"material":1
				}
			]
		},
		{
			"name":"bolts1.002",
			"primitives":[
				{
					"attributes":{
						"COLOR_0":40,
						"POSITION":41,
						"NORMAL":42,
						"TEXCOORD_0":43
					},
					"indices":44,
					"material":1
				}
			]
		},
		{
			"name":"Object_55.004",
			"primitives":[
				{
					"attributes":{
						"COLOR_0":45,
						"POSITION":46,
						"NORMAL":47,
						"TEXCOORD_0":48
					},
					"indices":49,
					"material":1
				}
			]
		},
		{
			"name":"Object_55.005",
			"primitives":[
				{
					"attributes":{
						"COLOR_0":50,
						"POSITION":51,
						"NORMAL":52,
						"TEXCOORD_0":53
					},
					"indices":54,
					"material":1
				}
			]
		},
		{
			"name":"Object_55.006",
			"primitives":[
				{
					"attributes":{
						"COLOR_0":55,
						"POSITION":56,
						"NORMAL":57,
						"TEXCOORD_0":58
					},
					"indices":59,
					"material":1
				}
			]
		},
		{
			"name":"bolts1.003",
			"primitives":[
				{
					"attributes":{
						"COLOR_0":60,
						"POSITION":61,
						"NORMAL":62,
						"TEXCOORD_0":63
					},
					"indices":64,
					"material":1
				}
			]
		},
		{
			"name":"Object_55.007",
			"primitives":[
				{
					"attributes":{
						"COLOR_0":65,
						"POSITION":66,
						"NORMAL":67,
						"TEXCOORD_0":68
					},
					"indices":54,
					"material":1
				}
			]
		},
		{
			"name":"Object_55.008",
			"primitives":[
				{
					"attributes":{
						"COLOR_0":69,
						"POSITION":70,
						"NORMAL":71,
						"TEXCOORD_0":72
					},
					"indices":59,
					"material":1
				}
			]
		},
		{
			"name":"bolts1.004",
			"primitives":[
				{
					"attributes":{
						"COLOR_0":73,
						"POSITION":74,
						"NORMAL":75,
						"TEXCOORD_0":76
					},
					"indices":77,
					"material":1
				}
			]
		},
		{
			"name":"Object_55.010",
			"primitives":[
				{
					"attributes":{
						"COLOR_0":78,
						"POSITION":79,
						"NORMAL":80,
						"TEXCOORD_0":81
					},
					"indices":82,
					"material":1
				}
			]
		},
		{
			"name":"Object_55.011",
			"primitives":[
				{
					"attributes":{
						"COLOR_0":83,
						"POSITION":84,
						"NORMAL":85,
						"TEXCOORD_0":86
					},
					"indices":87,
					"material":1
				}
			]
		},
		{
			"name":"bolts1.005",
			"primitives":[
				{
					"attributes":{
						"COLOR_0":88,
						"POSITION":89,
						"NORMAL":90,
						"TEXCOORD_0":91
					},
					"indices":92,
					"material":1
				}
			]
		},
		{
			"name":"Circle.005",
			"primitives":[
				{
					"attributes":{
						"POSITION":93,
						"NORMAL":94,
						"TEXCOORD_0":95
					},
					"indices":96,
					"material":1
				},
				{
					"attributes":{
						"POSITION":97,
						"NORMAL":98,
						"TEXCOORD_0":99
					},
					"indices":100,
					"material":2
				}
			]
		},
		{
			"name":"Object_30.001",
			"primitives":[
				{
					"attributes":{
						"COLOR_0":101,
						"POSITION":102,
						"NORMAL":103,
						"TEXCOORD_0":104
					},
					"indices":105,
					"material":3
				}
			]
		},
		{
			"name":"Object_30.006",
			"primitives":[
				{
					"attributes":{
						"COLOR_0":106,
						"POSITION":107,
						"NORMAL":108,
						"TEXCOORD_0":109
					},
					"indices":105,
					"material":3
				}
			]
		}
	],
	"accessors":[
		{
			"bufferView":0,
			"componentType":5126,
			"count":2180,
			"max":[
				25.730281829833984,
				17.36650848388672,
				-0.601226270198822
			],
			"min":[
				-21.896886825561523,
				-31.654640197753906,
				-56.94068145751953
			],
			"type":"VEC3"
		},
		{
			"bufferView":1,
			"componentType":5126,
			"count":2180,
			"type":"VEC3"
		},
		{
			"bufferView":2,
			"componentType":5126,
			"count":2180,
			"type":"VEC2"
		},
		{
			"bufferView":3,
			"componentType":5123,
			"count":6834,
			"type":"SCALAR"
		},
		{
			"bufferView":4,
			"componentType":5126,
			"count":1793,
			"max":[
				29.45753288269043,
				7.263092041015625,
				29.349023818969727
			],
			"min":[
				-29.240509033203125,
				-7.459600448608398,
				-29.349008560180664
			],
			"type":"VEC3"
		},
		{
			"bufferView":5,
			"componentType":5126,
			"count":1793,
			"type":"VEC3"
		},
		{
			"bufferView":6,
			"componentType":5126,
			"count":1793,
			"type":"VEC2"
		},
		{
			"bufferView":7,
			"componentType":5123,
			"count":6264,
			"type":"SCALAR"
		},
		{
			"bufferView":8,
			"componentType":5126,
			"count":4532,
			"max":[
				32.25984573364258,
				15.413415908813477,
				46.34221649169922
			],
			"min":[
				-34.302024841308594,
				-13.41580867767334,
				-36.48285675048828
			],
			"type":"VEC3"
		},
		{
			"bufferView":9,
			"componentType":5126,
			"count":4532,
			"type":"VEC3"
		},
		{
			"bufferView":10,
			"componentType":5126,
			"count":4532,
			"type":"VEC2"
		},
		{
			"bufferView":11,
			"componentType":5123,
			"count":17766,
			"type":"SCALAR"
		},
		{
			"bufferView":12,
			"componentType":5126,
			"count":432,
			"max":[
				13.473461151123047,
				-31.654632568359375,
				-21.57071304321289
			],
			"min":[
				-9.640034675598145,
				-35.37187957763672,
				-44.684207916259766
			],
			"type":"VEC3"
		},
		{
			"bufferView":13,
			"componentType":5126,
			"count":432,
			"type":"VEC3"
		},
		{
			"bufferView":14,
			"componentType":5126,
			"count":432,
			"type":"VEC2"
		},
		{
			"bufferView":15,
			"componentType":5123,
			"count":2160,
			"type":"SCALAR"
		},
		{
			"bufferView":16,
			"componentType":5126,
			"count":432,
			"max":[
				11.556746482849121,
				1.8905311822891235,
				11.543648719787598
			],
			"min":[
				-11.556747436523438,
				-1.8267161846160889,
				-11.569849014282227
			],
			"type":"VEC3"
		},
		{
			"bufferView":17,
			"componentType":5126,
			"count":432,
			"type":"VEC3"
		},
		{
			"bufferView":18,
			"componentType":5126,
			"count":432,
			"type":"VEC2"
		},
		{
			"bufferView":19,
			"componentType":5123,
			"count":2160,
			"type":"SCALAR"
		},
		{
			"bufferView":20,
			"componentType":5123,
			"count":2211,
			"normalized":true,
			"type":"VEC4"
		},
		{
			"bufferView":21,
			"componentType":5126,
			"count":2211,
			"max":[
				4.047905921936035,
				49.76533508300781,
				4.047898769378662
			],
			"min":[
				-4.04789400100708,
				-28.520092010498047,
				-4.047900199890137
			],
			"type":"VEC3"
		},
		{
			"bufferView":22,
			"componentType":5126,
			"count":2211,
			"type":"VEC3"
		},
		{
			"bufferView":23,
			"componentType":5126,
			"count":2211,
			"type":"VEC2"
		},
		{
			"bufferView":24,
			"componentType":5123,
			"count":8286,
			"type":"SCALAR"
		},
		{
			"bufferView":25,
			"componentType":5123,
			"count":1090,
			"normalized":true,
			"type":"VEC4"
		},
		{
			"bufferView":26,
			"componentType":5126,
			"count":1090,
			"max":[
				2.360320568084717,
				1.5461229085922241,
				2.2631659507751465
			],
			"min":[
				-2.3603200912475586,
				-3.0922322273254395,
				-2.2631659507751465
			],
			"type":"VEC3"
		},
		{
			"bufferView":27,
			"componentType":5126,
			"count":1090,
			"type":"VEC3"
		},
		{
			"bufferView":28,
			"componentType":5126,
			"count":1090,
			"type":"VEC2"
		},
		{
			"bufferView":29,
			"componentType":5123,
			"count":4140,
			"type":"SCALAR"
		},
		{
			"bufferView":30,
			"componentType":5123,
			"count":15261,
			"normalized":true,
			"type":"VEC4"
		},
		{
			"bufferView":31,
			"componentType":5126,
			"count":15261,
			"max":[
				18.807910919189453,
				8.096446990966797,
				18.79608726501465
			],
			"min":[
				-18.803247451782227,
				-6.953904628753662,
				-18.81507110595703
			],
			"type":"VEC3"
		},
		{
			"bufferView":32,
			"componentType":5126,
			"count":15261,
			"type":"VEC3"
		},
		{
			"bufferView":33,
			"componentType":5126,
			"count":15261,
			"type":"VEC2"
		},
		{
			"bufferView":34,
			"componentType":5123,
			"count":69042,
			"type":"SCALAR"
		},
		{
			"bufferView":35,
			"componentType":5123,
			"count":2976,
			"normalized":true,
			"type":"VEC4"
		},
		{
			"bufferView":36,
			"componentType":5126,
			"count":2976,
			"max":[
				28.26368522644043,
				0.1966957002878189,
				28.26365852355957
			],
			"min":[
				-28.263668060302734,
				-0.19670642912387848,
				-28.263687133789062
			],
			"type":"VEC3"
		},
		{
			"bufferView":37,
			"componentType":5126,
			"count":2976,
			"type":"VEC3"
		},
		{
			"bufferView":38,
			"componentType":5126,
			"count":2976,
			"type":"VEC2"
		},
		{
			"bufferView":39,
			"componentType":5123,
			"count":8928,
			"type":"SCALAR"
		},
		{
			"bufferView":40,
			"componentType":5123,
			"count":7168,
			"normalized":true,
			"type":"VEC4"
		},
		{
			"bufferView":41,
			"componentType":5126,
			"count":7168,
			"max":[
				28.110689163208008,
				1.043060064315796,
				28.110736846923828
			],
			"min":[
				-28.11065673828125,
				-1.0418713092803955,
				-28.11062240600586
			],
			"type":"VEC3"
		},
		{
			"bufferView":42,
			"componentType":5126,
			"count":7168,
			"type":"VEC3"
		},
		{
			"bufferView":43,
			"componentType":5126,
			"count":7168,
			"type":"VEC2"
		},
		{
			"bufferView":44,
			"componentType":5123,
			"count":20352,
			"type":"SCALAR"
		},
		{
			"bufferView":45,
			"componentType":5123,
			"count":1984,
			"normalized":true,
			"type":"VEC4"
		},
		{
			"bufferView":46,
			"componentType":5126,
			"count":1984,
			"max":[
				27.347925186157227,
				3.7796432971954346,
				27.347919464111328
			],
			"min":[
				-27.347942352294922,
				-5.43897008895874,
				-27.347949981689453
			],
			"type":"VEC3"
		},
		{
			"bufferView":47,
			"componentType":5126,
			"count":1984,
			"type":"VEC3"
		},
		{
			"bufferView":48,
			"componentType":5126,
			"count":1984,
			"type":"VEC2"
		},
		{
			"bufferView":49,
			"componentType":5123,
			"count":5760,
			"type":"SCALAR"
		},
		{
			"bufferView":50,
			"componentType":5123,
			"count":992,
			"normalized":true,
			"type":"VEC4"
		},
		{
			"bufferView":51,
			"componentType":5126,
			"count":992,
			"max":[
				14.461213111877441,
				4.744354248046875,
				14.461223602294922
			],
			"min":[
				-14.461225509643555,
				-4.744292736053467,
				-14.461213111877441
			],
			"type":"VEC3"
		},
		{
			"bufferView":52,
			"componentType":5126,
			"count":992,
			"type":"VEC3"
		},
		{
			"bufferView":53,
			"componentType":5126,
			"count":992,
			"type":"VEC2"
		},
		{
			"bufferView":54,
			"componentType":5123,
			"count":2880,
			"type":"SCALAR"
		},
		{
			"bufferView":55,
			"componentType":5123,
			"count":1488,
			"normalized":true,
			"type":"VEC4"
		},
		{
			"bufferView":56,
			"componentType":5126,
			"count":1488,
			"max":[
				15.61129379272461,
				0.24689067900180817,
				15.611298561096191
			],
			"min":[
				-15.611298561096191,
				-0.2468932718038559,
				-15.611292839050293
			],
			"type":"VEC3"
		},
		{
			"bufferView":57,
			"componentType":5126,
			"count":1488,
			"type":"VEC3"
		},
		{
			"bufferView":58,
			"componentType":5126,
			"count":1488,
			"type":"VEC2"
		},
		{
			"bufferView":59,
			"componentType":5123,
			"count":4464,
			"type":"SCALAR"
		},
		{
			"bufferView":60,
			"componentType":5123,
			"count":3584,
			"normalized":true,
			"type":"VEC4"
		},
		{
			"bufferView":61,
			"componentType":5126,
			"count":3584,
			"max":[
				15.423068046569824,
				1.3077912330627441,
				15.42308521270752
			],
			"min":[
				-15.423093795776367,
				-1.3092085123062134,
				-15.423074722290039
			],
			"type":"VEC3"
		},
		{
			"bufferView":62,
			"componentType":5126,
			"count":3584,
			"type":"VEC3"
		},
		{
			"bufferView":63,
			"componentType":5126,
			"count":3584,
			"type":"VEC2"
		},
		{
			"bufferView":64,
			"componentType":5123,
			"count":10176,
			"type":"SCALAR"
		},
		{
			"bufferView":65,
			"componentType":5123,
			"count":992,
			"normalized":true,
			"type":"VEC4"
		},
		{
			"bufferView":66,
			"componentType":5126,
			"count":992,
			"max":[
				7.233562469482422,
				2.373133420944214,
				7.233560085296631
			],
			"min":[
				-7.233562469482422,
				-2.3731276988983154,
				-7.233564376831055
			],
			"type":"VEC3"
		},
		{
			"bufferView":67,
			"componentType":5126,
			"count":992,
			"type":"VEC3"
		},
		{
			"bufferView":68,
			"componentType":5126,
			"count":992,
			"type":"VEC2"
		},
		{
			"bufferView":69,
			"componentType":5123,
			"count":1488,
			"normalized":true,
			"type":"VEC4"
		},
		{
			"bufferView":70,
			"componentType":5126,
			"count":1488,
			"max":[
				7.808838844299316,
				0.12351280450820923,
				7.808830738067627
			],
			"min":[
				-7.80883264541626,
				-0.12347979098558426,
				-7.808839321136475
			],
			"type":"VEC3"
		},
		{
			"bufferView":71,
			"componentType":5126,
			"count":1488,
			"type":"VEC3"
		},
		{
			"bufferView":72,
			"componentType":5126,
			"count":1488,
			"type":"VEC2"
		},
		{
			"bufferView":73,
			"componentType":5123,
			"count":3584,
			"normalized":true,
			"type":"VEC4"
		},
		{
			"bufferView":74,
			"componentType":5126,
			"count":3584,
			"max":[
				7.7146806716918945,
				0.6541670560836792,
				7.714691638946533
			],
			"min":[
				-7.7147016525268555,
				-0.6548672914505005,
				-7.714687824249268
			],
			"type":"VEC3"
		},
		{
			"bufferView":75,
			"componentType":5126,
			"count":3584,
			"type":"VEC3"
		},
		{
			"bufferView":76,
			"componentType":5126,
			"count":3584,
			"type":"VEC2"
		},
		{
			"bufferView":77,
			"componentType":5123,
			"count":10176,
			"type":"SCALAR"
		},
		{
			"bufferView":78,
			"componentType":5123,
			"count":992,
			"normalized":true,
			"type":"VEC4"
		},
		{
			"bufferView":79,
			"componentType":5126,
			"count":992,
			"max":[
				7.233562469482422,
				2.373128652572632,
				7.233562469482422
			],
			"min":[
				-7.233562469482422,
				-2.3731346130371094,
				-7.233558654785156
			],
			"type":"VEC3"
		},
		{
			"bufferView":80,
			"componentType":5126,
			"count":992,
			"type":"VEC3"
		},
		{
			"bufferView":81,
			"componentType":5126,
			"count":992,
			"type":"VEC2"
		},
		{
			"bufferView":82,
			"componentType":5123,
			"count":2880,
			"type":"SCALAR"
		},
		{
			"bufferView":83,
			"componentType":5123,
			"count":1488,
			"normalized":true,
			"type":"VEC4"
		},
		{
			"bufferView":84,
			"componentType":5126,
			"count":1488,
			"max":[
				7.808838844299316,
				0.12348029017448425,
				7.808837890625
			],
			"min":[
				-7.80883264541626,
				-0.12351294606924057,
				-7.808829307556152
			],
			"type":"VEC3"
		},
		{
			"bufferView":85,
			"componentType":5126,
			"count":1488,
			"type":"VEC3"
		},
		{
			"bufferView":86,
			"componentType":5126,
			"count":1488,
			"type":"VEC2"
		},
		{
			"bufferView":87,
			"componentType":5123,
			"count":4464,
			"type":"SCALAR"
		},
		{
			"bufferView":88,
			"componentType":5123,
			"count":3584,
			"normalized":true,
			"type":"VEC4"
		},
		{
			"bufferView":89,
			"componentType":5126,
			"count":3584,
			"max":[
				7.7146806716918945,
				0.654868483543396,
				7.714686393737793
			],
			"min":[
				-7.7147016525268555,
				-0.6541681885719299,
				-7.714690208435059
			],
			"type":"VEC3"
		},
		{
			"bufferView":90,
			"componentType":5126,
			"count":3584,
			"type":"VEC3"
		},
		{
			"bufferView":91,
			"componentType":5126,
			"count":3584,
			"type":"VEC2"
		},
		{
			"bufferView":92,
			"componentType":5123,
			"count":10176,
			"type":"SCALAR"
		},
		{
			"bufferView":93,
			"componentType":5126,
			"count":20,
			"max":[
				0.9238879084587097,
				0.3259941339492798,
				18.34016227722168
			],
			"min":[
				-0.9238872528076172,
				-0.32599711418151855,
				-1.415942668914795
			],
			"type":"VEC3"
		},
		{
			"bufferView":94,
			"componentType":5126,
			"count":20,
			"type":"VEC3"
		},
		{
			"bufferView":95,
			"componentType":5126,
			"count":20,
			"type":"VEC2"
		},
		{
			"bufferView":96,
			"componentType":5123,
			"count":30,
			"type":"SCALAR"
		},
		{
			"bufferView":97,
			"componentType":5126,
			"count":582,
			"max":[
				4.689131736755371,
				4.6891303062438965,
				2.0668859481811523
			],
			"min":[
				-4.689130783081055,
				-4.6891303062438965,
				-2.4342591762542725
			],
			"type":"VEC3"
		},
		{
			"bufferView":98,
			"componentType":5126,
			"count":582,
			"type":"VEC3"
		},
		{
			"bufferView":99,
			"componentType":5126,
			"count":582,
			"type":"VEC2"
		},
		{
			"bufferView":100,
			"componentType":5123,
			"count":1908,
			"type":"SCALAR"
		},
		{
			"bufferView":101,
			"componentType":5123,
			"count":11976,
			"normalized":true,
			"type":"VEC4"
		},
		{
			"bufferView":102,
			"componentType":5126,
			"count":11976,
			"max":[
				5.673482894897461,
				1.6125682592391968,
				5.665260314941406
			],
			"min":[
				-5.662282943725586,
				-1.3801289796829224,
				-5.6729936599731445
			],
			"type":"VEC3"
		},
		{
			"bufferView":103,
			"componentType":5126,
			"count":11976,
			"type":"VEC3"
		},
		{
			"bufferView":104,
			"componentType":5126,
			"count":11976,
			"type":"VEC2"
		},
		{
			"bufferView":105,
			"componentType":5123,
			"count":63705,
			"type":"SCALAR"
		},
		{
			"bufferView":106,
			"componentType":5123,
			"count":11976,
			"normalized":true,
			"type":"VEC4"
		},
		{
			"bufferView":107,
			"componentType":5126,
			"count":11976,
			"max":[
				5.673482894897461,
				1.6125682592391968,
				5.665260314941406
			],
			"min":[
				-5.662282943725586,
				-1.3801289796829224,
				-5.6729936599731445
			],
			"type":"VEC3"
		},
		{
			"bufferView":108,
			"componentType":5126,
			"count":11976,
			"type":"VEC3"
		},
		{
			"bufferView":109,
			"componentType":5126,
			"count":11976,
			"type":"VEC2"
		}
	],
	"bufferViews":[
		{
			"buffer":0,
			"byteLength":26160,
			"byteOffset":0,
			"target":34962
		},
		{
			"buffer":0,
			"byteLength":26160,
			"byteOffset":26160,
			"target":34962
		},
		{
			"buffer":0,
			"byteLength":17440,
			"byteOffset":52320,
			"target":34962
		},
		{
			"buffer":0,
			"byteLength":13668,
			"byteOffset":69760,
			"target":34963
		},
		{
			"buffer":0,
			"byteLength":21516,
			"byteOffset":83428,
			"target":34962
		},
		{
			"buffer":0,
			"byteLength":21516,
			"byteOffset":104944,
			"target":34962
		},
		{
			"buffer":0,
			"byteLength":14344,
			"byteOffset":126460,
			"target":34962
		},
		{
			"buffer":0,
			"byteLength":12528,
			"byteOffset":140804,
			"target":34963
		},
		{
			"buffer":0,
			"byteLength":54384,
			"byteOffset":153332,
			"target":34962
		},
		{
			"buffer":0,
			"byteLength":54384,
			"byteOffset":207716,
			"target":34962
		},
		{
			"buffer":0,
			"byteLength":36256,
			"byteOffset":262100,
			"target":34962
		},
		{
			"buffer":0,
			"byteLength":35532,
			"byteOffset":298356,
			"target":34963
		},
		{
			"buffer":0,
			"byteLength":5184,
			"byteOffset":333888,
			"target":34962
		},
		{
			"buffer":0,
			"byteLength":5184,
			"byteOffset":339072,
			"target":34962
		},
		{
			"buffer":0,
			"byteLength":3456,
			"byteOffset":344256,
			"target":34962
		},
		{
			"buffer":0,
			"byteLength":4320,
			"byteOffset":347712,
			"target":34963
		},
		{
			"buffer":0,
			"byteLength":5184,
			"byteOffset":352032,
			"target":34962
		},
		{
			"buffer":0,
			"byteLength":5184,
			"byteOffset":357216,
			"target":34962
		},
		{
			"buffer":0,
			"byteLength":3456,
			"byteOffset":362400,
			"target":34962
		},
		{
			"buffer":0,
			"byteLength":4320,
			"byteOffset":365856,
			"target":34963
		},
		{
			"buffer":0,
			"byteLength":17688,
			"byteOffset":370176,
			"target":34962
		},
		{
			"buffer":0,
			"byteLength":26532,
			"byteOffset":387864,
			"target":34962
		},
		{
			"buffer":0,
			"byteLength":26532,
			"byteOffset":414396,
			"target":34962
		},
		{
			"buffer":0,
			"byteLength":17688,
			"byteOffset":440928,
			"target":34962
		},
		{
			"buffer":0,
			"byteLength":16572,
			"byteOffset":458616,
			"target":34963
		},
		{
			"buffer":0,
			"byteLength":8720,
			"byteOffset":475188,
			"target":34962
		},
		{
			"buffer":0,
			"byteLength":13080,
			"byteOffset":483908,
			"target":34962
		},
		{
			"buffer":0,
			"byteLength":13080,
			"byteOffset":496988,
			"target":34962
		},
		{
			"buffer":0,
			"byteLength":8720,
			"byteOffset":510068,
			"target":34962
		},
		{
			"buffer":0,
			"byteLength":8280,
			"byteOffset":518788,
			"target":34963
		},
		{
			"buffer":0,
			"byteLength":122088,
			"byteOffset":527068,
			"target":34962
		},
		{
			"buffer":0,
			"byteLength":183132,
			"byteOffset":649156,
			"target":34962
		},
		{
			"buffer":0,
			"byteLength":183132,
			"byteOffset":832288,
			"target":34962
		},
		{
			"buffer":0,
			"byteLength":122088,
			"byteOffset":1015420,
			"target":34962
		},
		{
			"buffer":0,
			"byteLength":138084,
			"byteOffset":1137508,
			"target":34963
		},
		{
			"buffer":0,
			"byteLength":23808,
			"byteOffset":1275592,
			"target":34962
		},
		{
			"buffer":0,
			"byteLength":35712,
			"byteOffset":1299400,
			"target":34962
		},
		{
			"buffer":0,
			"byteLength":35712,
			"byteOffset":1335112,
			"target":34962
		},
		{
			"buffer":0,
			"byteLength":23808,
			"byteOffset":1370824,
			"target":34962
		},
		{
			"buffer":0,
			"byteLength":17856,
			"byteOffset":1394632,
			"target":34963
		},
		{
			"buffer":0,
			"byteLength":57344,
			"byteOffset":1412488,
			"target":34962
		},
		{
			"buffer":0,
			"byteLength":86016,
			"byteOffset":1469832,
			"target":34962
		},
		{
			"buffer":0,
			"byteLength":86016,
			"byteOffset":1555848,
			"target":34962
		},
		{
			"buffer":0,
			"byteLength":57344,
			"byteOffset":1641864,
			"target":34962
		},
		{
			"buffer":0,
			"byteLength":40704,
			"byteOffset":1699208,
			"target":34963
		},
		{
			"buffer":0,
			"byteLength":15872,
			"byteOffset":1739912,
			"target":34962
		},
		{
			"buffer":0,
			"byteLength":23808,
			"byteOffset":1755784,
			"target":34962
		},
		{
			"buffer":0,
			"byteLength":23808,
			"byteOffset":1779592,
			"target":34962
		},
		{
			"buffer":0,
			"byteLength":15872,
			"byteOffset":1803400,
			"target":34962
		},
		{
			"buffer":0,
			"byteLength":11520,
			"byteOffset":1819272,
			"target":34963
		},
		{
			"buffer":0,
			"byteLength":7936,
			"byteOffset":1830792,
			"target":34962
		},
		{
			"buffer":0,
			"byteLength":11904,
			"byteOffset":1838728,
			"target":34962
		},
		{
			"buffer":0,
			"byteLength":11904,
			"byteOffset":1850632,
			"target":34962
		},
		{
			"buffer":0,
			"byteLength":7936,
			"byteOffset":1862536,
			"target":34962
		},
		{
			"buffer":0,
			"byteLength":5760,
			"byteOffset":1870472,
			"target":34963
		},
		{
			"buffer":0,
			"byteLength":11904,
			"byteOffset":1876232,
			"target":34962
		},
		{
			"buffer":0,
			"byteLength":17856,
			"byteOffset":1888136,
			"target":34962
		},
		{
			"buffer":0,
			"byteLength":17856,
			"byteOffset":1905992,
			"target":34962
		},
		{
			"buffer":0,
			"byteLength":11904,
			"byteOffset":1923848,
			"target":34962
		},
		{
			"buffer":0,
			"byteLength":8928,
			"byteOffset":1935752,
			"target":34963
		},
		{
			"buffer":0,
			"byteLength":28672,
			"byteOffset":1944680,
			"target":34962
		},
		{
			"buffer":0,
			"byteLength":43008,
			"byteOffset":1973352,
			"target":34962
		},
		{
			"buffer":0,
			"byteLength":43008,
			"byteOffset":2016360,
			"target":34962
		},
		{
			"buffer":0,
			"byteLength":28672,
			"byteOffset":2059368,
			"target":34962
		},
		{
			"buffer":0,
			"byteLength":20352,
			"byteOffset":2088040,
			"target":34963
		},
		{
			"buffer":0,
			"byteLength":7936,
			"byteOffset":2108392,
			"target":34962
		},
		{
			"buffer":0,
			"byteLength":11904,
			"byteOffset":2116328,
			"target":34962
		},
		{
			"buffer":0,
			"byteLength":11904,
			"byteOffset":2128232,
			"target":34962
		},
		{
			"buffer":0,
			"byteLength":7936,
			"byteOffset":2140136,
			"target":34962
		},
		{
			"buffer":0,
			"byteLength":11904,
			"byteOffset":2148072,
			"target":34962
		},
		{
			"buffer":0,
			"byteLength":17856,
			"byteOffset":2159976,
			"target":34962
		},
		{
			"buffer":0,
			"byteLength":17856,
			"byteOffset":2177832,
			"target":34962
		},
		{
			"buffer":0,
			"byteLength":11904,
			"byteOffset":2195688,
			"target":34962
		},
		{
			"buffer":0,
			"byteLength":28672,
			"byteOffset":2207592,
			"target":34962
		},
		{
			"buffer":0,
			"byteLength":43008,
			"byteOffset":2236264,
			"target":34962
		},
		{
			"buffer":0,
			"byteLength":43008,
			"byteOffset":2279272,
			"target":34962
		},
		{
			"buffer":0,
			"byteLength":28672,
			"byteOffset":2322280,
			"target":34962
		},
		{
			"buffer":0,
			"byteLength":20352,
			"byteOffset":2350952,
			"target":34963
		},
		{
			"buffer":0,
			"byteLength":7936,
			"byteOffset":2371304,
			"target":34962
		},
		{
			"buffer":0,
			"byteLength":11904,
			"byteOffset":2379240,
			"target":34962
		},
		{
			"buffer":0,
			"byteLength":11904,
			"byteOffset":2391144,
			"target":34962
		},
		{
			"buffer":0,
			"byteLength":7936,
			"byteOffset":2403048,
			"target":34962
		},
		{
			"buffer":0,
			"byteLength":5760,
			"byteOffset":2410984,
			"target":34963
		},
		{
			"buffer":0,
			"byteLength":11904,
			"byteOffset":2416744,
			"target":34962
		},
		{
			"buffer":0,
			"byteLength":17856,
			"byteOffset":2428648,
			"target":34962
		},
		{
			"buffer":0,
			"byteLength":17856,
			"byteOffset":2446504,
			"target":34962
		},
		{
			"buffer":0,
			"byteLength":11904,
			"byteOffset":2464360,
			"target":34962
		},
		{
			"buffer":0,
			"byteLength":8928,
			"byteOffset":2476264,
			"target":34963
		},
		{
			"buffer":0,
			"byteLength":28672,
			"byteOffset":2485192,
			"target":34962
		},
		{
			"buffer":0,
			"byteLength":43008,
			"byteOffset":2513864,
			"target":34962
		},
		{
			"buffer":0,
			"byteLength":43008,
			"byteOffset":2556872,
			"target":34962
		},
		{
			"buffer":0,
			"byteLength":28672,
			"byteOffset":2599880,
			"target":34962
		},
		{
			"buffer":0,
			"byteLength":20352,
			"byteOffset":2628552,
			"target":34963
		},
		{
			"buffer":0,
			"byteLength":240,
			"byteOffset":2648904,
			"target":34962
		},
		{
			"buffer":0,
			"byteLength":240,
			"byteOffset":2649144,
			"target":34962
		},
		{
			"buffer":0,
			"byteLength":160,
			"byteOffset":2649384,
			"target":34962
		},
		{
			"buffer":0,
			"byteLength":60,
			"byteOffset":2649544,
			"target":34963
		},
		{
			"buffer":0,
			"byteLength":6984,
			"byteOffset":2649604,
			"target":34962
		},
		{
			"buffer":0,
			"byteLength":6984,
			"byteOffset":2656588,
			"target":34962
		},
		{
			"buffer":0,
			"byteLength":4656,
			"byteOffset":2663572,
			"target":34962
		},
		{
			"buffer":0,
			"byteLength":3816,
			"byteOffset":2668228,
			"target":34963
		},
		{
			"buffer":0,
			"byteLength":95808,
			"byteOffset":2672044,
			"target":34962
		},
		{
			"buffer":0,
			"byteLength":143712,
			"byteOffset":2767852,
			"target":34962
		},
		{
			"buffer":0,
			"byteLength":143712,
			"byteOffset":2911564,
			"target":34962
		},
		{
			"buffer":0,
			"byteLength":95808,
			"byteOffset":3055276,
			"target":34962
		},
		{
			"buffer":0,
			"byteLength":127410,
			"byteOffset":3151084,
			"target":34963
		},
		{
			"buffer":0,
			"byteLength":95808,
			"byteOffset":3278496,
			"target":34962
		},
		{
			"buffer":0,
			"byteLength":143712,
			"byteOffset":3374304,
			"target":34962
		},
		{
			"buffer":0,
			"byteLength":143712,
			"byteOffset":3518016,
			"target":34962
		},
		{
			"buffer":0,
			"byteLength":95808,
			"byteOffset":3661728,
			"target":34962
		}
	],
	"buffers":[
		{
			"byteLength":3757536,
			"uri":"Bomba%20Emica%20150-40.bin"
		}
	]
}
