{
	"asset":{
		"generator":"Khronos glTF Blender I/O v4.0.44",
		"version":"2.0"
	},
	"scene":0,
	"scenes":[
		{
			"name":"Scene",
			"nodes":[
				0,
				1,
				2
			]
		}
	],
	"nodes":[
		{
			"mesh":0,
			"name":"Object_57.002",
			"translation":[
				0,
				0,
				-0.04912199079990387
			]
		},
		{
			"mesh":1,
			"name":"Object_57.005",
			"translation":[
				0,
				0,
				-0.18493959307670593
			]
		},
		{
			"mesh":2,
			"name":"bolts1.002",
			"translation":[
				0,
				0,
				0.17047369480133057
			]
		}
	],
	"materials":[
		{
			"doubleSided":true,
			"name":"metal",
			"pbrMetallicRoughness":{
				"baseColorFactor":[
					0.4331415891647339,
					0.7067645788192749,
					0.6557496786117554,
					1
				],
				"metallicFactor":0,
				"roughnessFactor":0.5
			}
		}
	],
	"meshes":[
		{
			"name":"Object_55.002",
			"primitives":[
				{
					"attributes":{
						"COLOR_0":0,
						"POSITION":1,
						"NORMAL":2,
						"TEXCOORD_0":3
					},
					"indices":4,
					"material":0
				}
			]
		},
		{
			"name":"Object_55.013",
			"primitives":[
				{
					"attributes":{
						"COLOR_0":5,
						"POSITION":6,
						"NORMAL":7,
						"TEXCOORD_0":8
					},
					"indices":9,
					"material":0
				}
			]
		},
		{
			"name":"bolts1.006",
			"primitives":[
				{
					"attributes":{
						"COLOR_0":10,
						"POSITION":11,
						"NORMAL":12,
						"TEXCOORD_0":13
					},
					"indices":14,
					"material":0
				}
			]
		}
	],
	"accessors":[
		{
			"bufferView":0,
			"componentType":5123,
			"count":372,
			"normalized":true,
			"type":"VEC4"
		},
		{
			"bufferView":1,
			"componentType":5126,
			"count":372,
			"max":[
				0.34873005747795105,
				0.3485780954360962,
				0.03487350046634674
			],
			"min":[
				-0.3481164574623108,
				-0.34857621788978577,
				-0.034873489290475845
			],
			"type":"VEC3"
		},
		{
			"bufferView":2,
			"componentType":5126,
			"count":372,
			"type":"VEC3"
		},
		{
			"bufferView":3,
			"componentType":5126,
			"count":372,
			"type":"VEC2"
		},
		{
			"bufferView":4,
			"componentType":5123,
			"count":1116,
			"type":"SCALAR"
		},
		{
			"bufferView":5,
			"componentType":5123,
			"count":339,
			"normalized":true,
			"type":"VEC4"
		},
		{
			"bufferView":6,
			"componentType":5126,
			"count":339,
			"max":[
				0.49671506881713867,
				0.4939920902252197,
				0.6701411604881287
			],
			"min":[
				-0.4967138171195984,
				-0.49399495124816895,
				-0.8924241662025452
			],
			"type":"VEC3"
		},
		{
			"bufferView":7,
			"componentType":5126,
			"count":339,
			"type":"VEC3"
		},
		{
			"bufferView":8,
			"componentType":5126,
			"count":339,
			"type":"VEC2"
		},
		{
			"bufferView":9,
			"componentType":5123,
			"count":1080,
			"type":"SCALAR"
		},
		{
			"bufferView":10,
			"componentType":5123,
			"count":896,
			"normalized":true,
			"type":"VEC4"
		},
		{
			"bufferView":11,
			"componentType":5126,
			"count":896,
			"max":[
				0.2788752615451813,
				0.32217827439308167,
				0.18493160605430603
			],
			"min":[
				-0.2790926694869995,
				-0.3221079707145691,
				-0.18472257256507874
			],
			"type":"VEC3"
		},
		{
			"bufferView":12,
			"componentType":5126,
			"count":896,
			"type":"VEC3"
		},
		{
			"bufferView":13,
			"componentType":5126,
			"count":896,
			"type":"VEC2"
		},
		{
			"bufferView":14,
			"componentType":5123,
			"count":2544,
			"type":"SCALAR"
		}
	],
	"bufferViews":[
		{
			"buffer":0,
			"byteLength":2976,
			"byteOffset":0,
			"target":34962
		},
		{
			"buffer":0,
			"byteLength":4464,
			"byteOffset":2976,
			"target":34962
		},
		{
			"buffer":0,
			"byteLength":4464,
			"byteOffset":7440,
			"target":34962
		},
		{
			"buffer":0,
			"byteLength":2976,
			"byteOffset":11904,
			"target":34962
		},
		{
			"buffer":0,
			"byteLength":2232,
			"byteOffset":14880,
			"target":34963
		},
		{
			"buffer":0,
			"byteLength":2712,
			"byteOffset":17112,
			"target":34962
		},
		{
			"buffer":0,
			"byteLength":4068,
			"byteOffset":19824,
			"target":34962
		},
		{
			"buffer":0,
			"byteLength":4068,
			"byteOffset":23892,
			"target":34962
		},
		{
			"buffer":0,
			"byteLength":2712,
			"byteOffset":27960,
			"target":34962
		},
		{
			"buffer":0,
			"byteLength":2160,
			"byteOffset":30672,
			"target":34963
		},
		{
			"buffer":0,
			"byteLength":7168,
			"byteOffset":32832,
			"target":34962
		},
		{
			"buffer":0,
			"byteLength":10752,
			"byteOffset":40000,
			"target":34962
		},
		{
			"buffer":0,
			"byteLength":10752,
			"byteOffset":50752,
			"target":34962
		},
		{
			"buffer":0,
			"byteLength":7168,
			"byteOffset":61504,
			"target":34962
		},
		{
			"buffer":0,
			"byteLength":5088,
			"byteOffset":68672,
			"target":34963
		}
	],
	"buffers":[
		{
			"byteLength":73760,
			"uri":"Screw_Nut.bin"
		}
	]
}
